<svg xmlns="http://www.w3.org/2000/svg" viewBox="0 0 320 320"><defs><style>.cls-1{fill:#98254b;}.cls-2{fill:#3a8e80;}.cls-3{fill:#ed2c64;}.cls-4{fill:#64c5ec;}.cls-5{fill:#eae322;}</style></defs><title>aframeAsset 8</title><g id="Layer_2" data-name="Layer 2"><g id="Layer_1-2" data-name="Layer 1"><path class="cls-1" d="M152.19,27.33,194.4,0H198l2.49,3.56c-8.15,3.59-15.15,9.74-23.1,13.46C169.22,20.86,163.58,33,152.19,27.33Z"/><path class="cls-2" d="M282.8,190.33c-.09,4.62,3.23,6,6.14,7.73,8.76,5.26,17.48,10.62,26.3,15.76,6.6,3.85,6.1,7.21-.05,11.05Q277,248.68,239,272.67c-24,15.06-48,30-71.9,45.3-3.84,2.45-6.75,2.84-10.77.3Q79.61,269.67,2.73,221.39A24.52,24.52,0,0,1,0,218.81c11.63-7.16,22.72-14.46,34.21-20.88,5.36-3,8.19-6.64,6.74-13.11-2.6-11.58,6.25-14.28,12-19.45,1.69-1.52,3-.41,3.84.8,8.85,12.21,17.79,7.4,26.77.3C82.05,178,77,188.34,73.76,199.28c-1.72,5.8-1.33,9.13,5,8.84a323.49,323.49,0,0,0,40-24.45c13.94,8.54,27.77,17.28,41.86,25.52,4.93,2.88,7.67,6.56,9,12.63,3.26,15.13,7.11,30.11,10.81,45.12,1,4.1,1.61,8.68,6.39,9.91,1.76,1.95,3.32.49,4.87-.39,19.82-11.21,37.95-25.7,58.27-36,4.68-2.37,6.5-7,4.63-13.9-5-18.48-8.79-37.36-13.06-56.08,1.39.62,2.82,1.15,4.17,1.86,5.3,2.78,9.71,8.32,15.69-.73,4.94-7.46,12.6-6.3,18.82.3-1.65,3-6.51,3.26-5.79,8.26l-.48.77.4-.87c2.56.22,3.83,1.8,3.69,4.58C277.9,188.38,279.44,190.24,282.8,190.33Z"/><path class="cls-3" d="M241.58,170.48c4.27,18.72,8.08,37.6,13.06,56.08,1.87,6.95.05,11.53-4.63,13.9-20.32,10.3-38.45,24.79-58.27,36-1.55.88-3.11,2.34-4.87.39a24.31,24.31,0,0,0-.67-8.81c-5.72-22.86-10-46.2-18.91-68L165.1,195c.05-13.31-3.16-26.08-5.79-38.9-.34-1.66-3.14-2.7-4.79-4l-.34-3.75c1.67-.63,3.65-.88,2.9-3.84-3.92-15.42-8.08-30.77-11.6-46.3-4.46-19.65-10.12-39-13-59.06l18.33-11.15,1.08,1.13.46-1.66-.11-.07c11.39,5.64,17-6.48,25.24-10.32,7.95-3.72,14.95-9.87,23.1-13.46,7.57,23.84,11.8,48.68,18.1,72.89,5.75,22.09,10,44.6,16.63,66.48C237.93,151.72,238.2,161.61,241.58,170.48Z"/><path class="cls-1" d="M167.29,200.05c8.89,21.79,13.19,45.13,18.91,68a24.31,24.31,0,0,1,.67,8.81c-4.78-1.23-5.38-5.81-6.39-9.91-3.7-15-7.55-30-10.81-45.12-1.31-6.07-4-9.75-9-12.63-14.09-8.24-27.92-17-41.86-25.52-6.73-6.27-15-9.69-22.36-14.84-3.12-2.2-4.76-1.84-5.82,2.18-3.32,12.61-9.61,24.08-11.84,37.11-6.38.29-6.77-3-5-8.84C77,188.34,82.05,178,83.58,166.47,95.06,139.86,103,111.74,112.7,84.38c1.13-3.17,1.11-7.5,5.39-8.28L118,76c3.93,5,1.36,9.82-.24,14.76-7.1,21.95-15.85,43.26-21.3,65.87-2.9,3.67-.29,4.76,2.23,6.32,20.62,12.81,41.25,25.6,61.7,38.74C163.75,203.88,165.48,203.19,167.29,200.05Z"/><path class="cls-1" d="M132.43,39.09c2.93,20.06,8.59,39.41,13,59.06,3.52,15.53,7.68,30.88,11.6,46.3.75,3-1.23,3.21-2.9,3.84-5.32-5.5-3-14.08-6.78-20.23-5.46-23.76-10.92-47.52-16.6-72.27-4.1,5.22-4.6,10.68-6.55,15.39C123,74.35,122.14,77.66,118,76l.13.1C116.31,67.73,125.83,43.16,132.43,39.09Z"/><path class="cls-4" d="M274.47,180.17c-.72-5,4.14-5.27,5.79-8.26,6.16,5.25,2.32,12.18,2.54,18.42-3.36-.09-4.9-2-4.72-5.68.14-2.78-1.13-4.36-3.69-4.58Z"/><path class="cls-1" d="M152.3,27.41l-.46,1.66-1.08-1.13A2,2,0,0,1,152.3,27.41Z"/><path class="cls-4" d="M78.81,208.12c2.23-13,8.52-24.5,11.84-37.11,1.06-4,2.7-4.38,5.82-2.18,7.34,5.15,15.63,8.57,22.36,14.84A323.49,323.49,0,0,1,78.81,208.12Z"/><path class="cls-4" d="M274.39,180.07l-.4.87.48-.77Z"/><path class="cls-5" d="M147.4,128.06c3.74,6.15,1.46,14.73,6.78,20.23.11,1.25.23,2.5.34,3.75A205.41,205.41,0,0,0,165.1,195l2.19,5.08c-1.81,3.14-3.54,3.83-6.94,1.64-20.45-13.14-41.08-25.93-61.7-38.74-2.52-1.56-5.13-2.65-2.23-6.32,2.29-.69,4.79-.94,6.83-2.14C118,145.79,132.69,136.9,147.4,128.06Z"/><path class="cls-1" d="M165.1,195A205.41,205.41,0,0,1,154.52,152c1.65,1.33,4.45,2.37,4.79,4C161.94,168.89,165.15,181.66,165.1,195Z"/><path class="cls-4" d="M147.4,128.06c-14.71,8.84-29.38,17.73-44.15,26.43-2,1.2-4.54,1.45-6.83,2.14,5.45-22.61,14.2-43.92,21.3-65.87,1.6-4.94,4.17-9.76.24-14.76,4.18,1.66,5-1.65,6.29-4.82,2-4.71,2.45-10.17,6.55-15.39C136.48,80.54,141.94,104.3,147.4,128.06Z"/></g></g></svg>