<svg xmlns="http://www.w3.org/2000/svg" viewBox="0 0 180.17 180.17"><defs><style>.cls-1{fill:#fdfdfd;}.cls-2{fill:#646464;}.cls-3{fill:#2593df;}.cls-4{fill:#0274c3;}.cls-5{fill:#0267aa;}.cls-6{fill:#bcbcbc;}</style></defs><title>arjsAsset 4</title><g id="Layer_2" data-name="Layer 2"><g id="Layer_1-2" data-name="Layer 1"><path class="cls-1" d="M180.08,90.58c0,28.67-.05,57.34.09,86,0,3-.6,3.59-3.59,3.59q-86.49-.18-173,0c-3,0-3.59-.6-3.58-3.59q.17-86.49,0-173C0,.6.6,0,3.58,0q86.51.17,173,0c3,0,3.6.6,3.59,3.58C180,32.58,180.08,61.58,180.08,90.58Zm-23.62,11.13c-1.52.22-3.79-.74-4.14,1.51-.27,1.77,1.59,2.79,3.07,3.52a10.77,10.77,0,0,0,6.82.72c3.07-.56,5.36-2.07,5.63-5.38s-2.16-4.5-4.82-5.44c-2-.71-4.56-.33-6-2.63,2.49-2,4.2-.62,6.12.42a2.49,2.49,0,0,0,3.5-.86c.53-1-.32-1.93-1.11-2.5-2.94-2.14-6.2-2.14-9.5-1.11a4.82,4.82,0,0,0-3.74,4.74c0,3.57,2.92,4.47,5.46,5.67Zm-140-23.58L16.18,100l-7.91,4.43C7,103.56,7,102.18,7.05,100.86c.24-9.41-.67-18.85.63-28.3-2.3.81-2.61,2.73-2.63,4.76,0,3.17-.17,6.35,0,9.5C5.48,92.88,4,99,5.91,105c0,2.9,1.81,4.51,4.05,5.8,7.19,4.15,14.42,8.23,21.58,12.42a8.1,8.1,0,0,0,8.91,0c7.17-4.18,14.41-8.24,21.6-12.39,2.23-1.28,4.1-2.89,4-5.81,1.21-.78,1-2,1-3.15,0-7.82,0-15.64,0-23.46a8.33,8.33,0,0,0-4.52-7.75c-7.48-4.33-14.88-8.8-22.41-13C35.25,55,32.08,56,27.5,62c6.35-5,11.25-3.33,16.28-.12,5.31,3.4,10.84,6.49,16.37,9.53a8.58,8.58,0,0,1,4.91,8.47c-.17,8.32-.09,16.64-.11,25L55.8,100,55.35,77.9C50,72.77,43.1,70.21,37,66.36a2.13,2.13,0,0,0-1.89,0C28.88,70.26,21.71,72.71,16.44,78.13ZM122.7,93.56c6.1-3.75,7.8-6.85,6.56-11.44-1.48-5.47-5.79-6.37-10.54-6.46-4-.07-8,0-12-.06-2.08,0-3,.68-3,2.88q.12,12.75,0,25.49c0,2.41,1,3.14,3.29,3.15s3.38-.77,3.22-3.17a36.06,36.06,0,0,1,0-5.5c.13-1.5-.91-3.62,1.39-4.26a4.65,4.65,0,0,1,5,1.67c1.86,2.35,3.51,4.86,5.2,7.33,3.09,4.53,3.72,4.75,9.49,2.86A55.94,55.94,0,0,0,122.7,93.56ZM68.91,107.39c3.31-1,6.81,1.35,7.77-2.85,1-4.36,3.73-4.59,7.35-4.59,4.15,0,7.82-.25,9,5.19.68,3.18,4,2.27,5.91,1.66,2.57-.84.35-2.84-.12-4.07-3.14-8.22-6.56-16.33-9.72-24.55-.82-2.13-2.12-2.69-4.17-2.59-1.82.09-3.61-.2-4.49,2.11C76.76,87.29,73,96.83,68.91,107.39Zm79.85-6.78h-.14c0-2.48,0-5,0-7.45,0-1.77,0-3.32-2.54-3.25-2.28.07-2.15,1.58-2.16,3.09,0,3.47.06,6.94,0,10.42-.06,2.67.89,5.74-2.83,7.1-.81.3-1,1.69-.56,2.69s1.3.9,2.13,1c3,.17,5.32-.82,5.65-4.15C148.6,106.89,148.62,103.75,148.76,100.61ZM9.47,71.57c5.2-2,10.06-4.39,14-8.27C18.41,65.4,13.4,67.61,9.47,71.57Zm136.47,16c1.43.07,2.58-.22,2.65-2s-.73-2.37-2.38-2.34c-1.3,0-2.27.29-2.38,1.82S144.05,87.64,145.94,87.56Zm-6.69,17.18c.05-1.9-1.1-2.24-2.61-2.19s-2.07.81-2,2.21c0,1.59.69,2.42,2.41,2.41S139.35,106.27,139.25,104.74Z"/><path class="cls-2" d="M8.27,104.45,16.18,100c2.35,1.52,5.2,2.23,7.15,4.39-.13,1-2.5,1.17-1.31,2.44,3.11,3.33,7.11,5.51,11.19,7.42,2.12,1,4.47,1.67,5.87-1.28,4.11-.4,7-3.3,10.4-5.16,2.67-1.46-.32-2.09-.78-3.1,1.81-2.39,4.57-3.36,7.09-4.69L65,104.85l1.1.24c.1,2.92-1.77,4.53-4,5.81-7.19,4.15-14.43,8.21-21.6,12.39a8.1,8.1,0,0,1-8.91,0C24.38,119.06,17.15,115,10,110.83c-2.24-1.29-4.09-2.9-4.05-5.8A2,2,0,0,0,8.27,104.45Z"/><path class="cls-2" d="M122.7,93.56a55.94,55.94,0,0,1,8.61,12.49c-5.77,1.89-6.4,1.67-9.49-2.86-1.69-2.47-3.34-5-5.2-7.33a4.65,4.65,0,0,0-5-1.67c-2.3.64-1.26,2.76-1.39,4.26a36.06,36.06,0,0,0,0,5.5c.16,2.4-.87,3.18-3.22,3.17s-3.31-.74-3.29-3.15q.12-12.73,0-25.49c0-2.2.91-2.93,3-2.88,4,.08,8,0,12,.06,4.75.09,9.06,1,10.54,6.46C130.5,86.71,128.8,89.81,122.7,93.56Zm-7-12.62c-1.41,1-4.52-1.38-5.16,1.59-.41,1.94-2,5.19,1.58,6.32,4.32,1.37,10-.31,10.64-2.95.51-2.27-.39-4-2.69-4.6A25.66,25.66,0,0,0,115.68,80.94Z"/><path class="cls-2" d="M68.91,107.39c4.1-10.56,7.85-20.1,11.5-29.69.88-2.31,2.67-2,4.49-2.11,2-.1,3.35.46,4.17,2.59,3.16,8.22,6.58,16.33,9.72,24.55.47,1.23,2.69,3.23.12,4.07-1.87.61-5.23,1.52-5.91-1.66C91.85,99.7,88.18,100,84,100c-3.62,0-6.36.23-7.35,4.59C75.72,108.74,72.22,106.4,68.91,107.39Zm15.3-23.14c-.83,2.24-1.65,4.21-2.28,6.24-.39,1.27-2,2.93-.14,3.87a6.17,6.17,0,0,0,5.77-.09c1.66-1,0-2.71-.42-4C86.43,88.34,86.26,86.1,84.21,84.25Z"/><path class="cls-3" d="M16.44,78.13c5.27-5.42,12.44-7.87,18.65-11.82a2.13,2.13,0,0,1,1.89,0C43.1,70.21,50,72.77,55.35,77.9c-6.91,2.48-12.54,7.36-19.22,10.27C32.4,87.14,29.25,85,26,83,22.91,81.21,20.22,78.59,16.44,78.13Z"/><path class="cls-4" d="M16.44,78.13c3.78.46,6.47,3.08,9.54,4.91,3.27,2,6.42,4.1,10.15,5.13,0,5.06.08,10.13-.1,15.19-.08,2.32,1,5-1.22,6.91-1,.6-2.25,1.47-3,.07-1.79-3.62-5.62-4-8.52-5.93-2-2.16-4.81-2.87-7.16-4.39Q16.31,89.07,16.44,78.13Z"/><path class="cls-5" d="M34.81,110.27c2.26-2,1.14-4.59,1.22-6.91.18-5.06.08-10.13.1-15.19,6.68-2.91,12.31-7.79,19.22-10.27L55.8,100c-2.53,1.33-5.29,2.3-7.1,4.69A22.29,22.29,0,0,0,38,110.92C36.93,110.86,35.67,111.58,34.81,110.27Z"/><path class="cls-3" d="M157.76,100.37c-2.54-1.2-5.48-2.1-5.46-5.67A4.82,4.82,0,0,1,156,90c3.3-1,6.56-1,9.5,1.11.79.57,1.64,1.52,1.11,2.5a2.49,2.49,0,0,1-3.5.86c-1.92-1-3.63-2.41-6.12-.42,1.43,2.3,4,1.92,6,2.63,2.66.94,5.09,2.13,4.82,5.44s-2.56,4.82-5.63,5.38a10.77,10.77,0,0,1-6.82-.72c-1.48-.73-3.34-1.75-3.07-3.52.35-2.25,2.62-1.29,4.14-1.52,1,2.47,2.91,2.89,5.19,2.07.5-.17,1.23-1,1.13-1.31-.78-2.14-3-1.48-4.54-2.07A1.89,1.89,0,0,0,157.76,100.37Z"/><path class="cls-6" d="M66.05,105.09l-1.1-.24c0-8.32-.06-16.64.11-25a8.58,8.58,0,0,0-4.91-8.47c-5.53-3-11.06-6.13-16.37-9.53-5-3.21-9.93-4.9-16.28.12,4.58-6.06,7.75-7,12.59-4.31,7.53,4.23,14.93,8.7,22.41,13A8.33,8.33,0,0,1,67,78.48c0,7.82,0,15.64,0,23.46C67,103.07,67.26,104.31,66.05,105.09Z"/><path class="cls-3" d="M148.76,100.61c-.14,3.14-.16,6.28-.47,9.4-.33,3.33-2.63,4.32-5.65,4.15-.83,0-1.73-.09-2.13-1s-.25-2.39.56-2.69c3.72-1.36,2.77-4.43,2.83-7.1.09-3.48,0-7,0-10.42,0-1.51-.12-3,2.16-3.09,2.49-.07,2.55,1.48,2.54,3.25,0,2.48,0,5,0,7.45Z"/><path class="cls-6" d="M8.27,104.45a2,2,0,0,1-2.36.58C4,99,5.48,92.88,5.09,86.82c-.21-3.15-.07-6.33,0-9.5,0-2,.33-3.95,2.63-4.76-1.3,9.45-.39,18.89-.63,28.3C7,102.18,7,103.56,8.27,104.45Z"/><path class="cls-6" d="M9.47,71.57c3.93-4,8.94-6.17,14-8.27C19.53,67.18,14.67,69.6,9.47,71.57Z"/><path class="cls-3" d="M145.94,87.56c-1.89.08-2.23-1-2.11-2.56s1.08-1.79,2.38-1.82c1.65,0,2.45.64,2.38,2.34S147.37,87.63,145.94,87.56Z"/><path class="cls-3" d="M139.25,104.74c.1,1.53-.47,2.42-2.24,2.43s-2.38-.82-2.41-2.41c0-1.4.58-2.17,2-2.21S139.3,102.84,139.25,104.74Z"/><path class="cls-6" d="M34.81,110.27c.86,1.31,2.12.59,3.23.66a1.5,1.5,0,0,1,1,2.06c-1.4,3-3.75,2.28-5.87,1.28-4.08-1.91-8.08-4.09-11.19-7.42-1.19-1.27,1.18-1.43,1.31-2.44,2.91,1.88,6.74,2.31,8.53,5.93C32.56,111.74,33.82,110.87,34.81,110.27Z"/><path class="cls-1" d="M39.08,113a1.5,1.5,0,0,0-1-2.06,22.23,22.23,0,0,1,10.66-6.2c.46,1,3.45,1.64.78,3.1C46.1,109.69,43.19,112.59,39.08,113Z"/><path class="cls-1" d="M115.68,80.94a25.66,25.66,0,0,1,4.37.36c2.3.62,3.2,2.33,2.69,4.6-.6,2.64-6.32,4.32-10.64,2.95-3.55-1.13-2-4.38-1.58-6.32C111.16,79.56,114.27,81.9,115.68,80.94Z"/><path class="cls-1" d="M84.21,84.25c2.05,1.85,2.22,4.09,2.93,6,.46,1.27,2.08,2.94.42,4a6.17,6.17,0,0,1-5.77.09c-1.89-.94-.25-2.6.14-3.87C82.56,88.46,83.38,86.49,84.21,84.25Z"/><path class="cls-1" d="M157.76,100.37a1.89,1.89,0,0,1,.48,0c1.58.59,3.76-.07,4.54,2.07.1.28-.63,1.14-1.13,1.31-2.28.82-4.17.4-5.19-2.07Z"/></g></g></svg>