<svg xmlns="http://www.w3.org/2000/svg" viewBox="0 0 320 320"><defs><style>.cls-1{fill:#fff;}</style></defs><title>threeAsset 7</title><g id="Layer_2" data-name="Layer 2"><g id="Layer_1-2" data-name="Layer 1"><path d="M79.79,320C52.77,211.63,26.83,107.59,0,0L320,91.21Zm3.59-13.68,44.12-48.93L67.07,240.25C72.8,263.48,77.83,283.83,83.38,306.32ZM131.59,180.7,192.53,198c-5.89-23.54-10.87-43.41-16.79-67ZM25.89,76.15,70.69,27.2,9.6,9.84C15.15,32.42,20.05,52.38,25.89,76.15Zm19,75.51,44.15-48L28.51,86.54C34.41,110.06,39.41,130,44.84,151.66ZM240.92,75.73c5.87,23.13,10.94,43.05,16.54,65.1l44-47.84ZM250,142.05,234,77.84l-43.17,47.49ZM55.6,159.19l60.23,17.06C110.08,153,105.12,133,99.68,111.05Zm144.1,37.59,43.8-49.1-60.32-17C189,154,193.92,173.66,199.7,196.78Zm-19.55-78.23c16-17.09,30-32.07,44.44-47.47L164.12,53.89C169.74,76.55,174.65,96.38,180.15,118.55ZM125.9,186.76c5.81,23,10.76,42.48,16.32,64.42l42.89-47.62ZM80.64,35.14,38.82,82.05,96.41,98.24C90.71,75.42,85.8,55.8,80.64,35.14ZM123,174.85l43.8-49.16-60.27-17.07C112.13,131,117,150.56,123,174.85Zm11.71,77.06c-5.69-22.8-10.59-42.48-16-64.31L75.37,235.16ZM173.16,120,156.71,55l-44.79,47.6ZM64,228.08l42.62-46.92L48,164.49C53.73,187.35,58.64,206.88,64,228.08ZM147.38,49l-60-16.87c5.8,23,10.67,42.41,16.14,64.12C119.27,79.22,133,64.41,147.38,49Z"/><path class="cls-1" d="M83.38,306.32c-5.55-22.49-10.58-42.84-16.31-66.07l60.43,17.14Z"/><path class="cls-1" d="M131.59,180.7l44.15-49.8c5.92,23.64,10.9,43.51,16.79,67Z"/><path class="cls-1" d="M25.89,76.15C20.05,52.38,15.15,32.42,9.6,9.84L70.69,27.2Z"/><path class="cls-1" d="M44.84,151.66C39.41,130,34.41,110.06,28.51,86.54L89,103.66Z"/><path class="cls-1" d="M250,142.05l-59.16-16.72L234,77.84Z"/><path class="cls-1" d="M55.6,159.19l44.08-48.14c5.44,22,10.4,42,16.15,65.2Z"/><path class="cls-1" d="M199.7,196.78C193.92,173.66,189,154,183.18,130.69l60.32,17Z"/><path class="cls-1" d="M180.15,118.55c-5.5-22.17-10.41-42-16-64.66l60.47,17.19C210.16,86.48,196.15,101.46,180.15,118.55Z"/><path class="cls-1" d="M125.9,186.76l59.21,16.8-42.89,47.62C136.66,229.24,131.71,209.71,125.9,186.76Z"/><path class="cls-1" d="M80.64,35.14C85.8,55.8,90.71,75.42,96.41,98.24L38.82,82.05Z"/><path class="cls-1" d="M123,174.85c-6-24.29-10.9-43.81-16.47-66.23l60.27,17.07Z"/><path class="cls-1" d="M134.74,251.91,75.37,235.16l43.34-47.56C124.15,209.43,129.05,229.11,134.74,251.91Z"/><path class="cls-1" d="M173.16,120l-61.24-17.42L156.71,55Z"/><path class="cls-1" d="M64,228.08c-5.33-21.2-10.24-40.73-16-63.59l58.6,16.67Z"/><path class="cls-1" d="M147.38,49C133,64.41,119.27,79.22,103.49,96.22,98,74.51,93.15,55.15,87.35,32.1Z"/></g></g></svg>